ModelForces
version=1
nRows=15
nColumns=15
inDegrees=no

This file contains the forces exerted on a model during a simulation.

A force is a generalized force, meaning that it can be either a force (N) or a torque (Nm).

Units are S.I. units (second, meters, Newtons, ...)
Angles are in degrees.

endheader
time	Liu	Thelen	contactForce.block.force.X	contactForce.block.force.Y	contactForce.block.force.Z	contactForce.block.torque.X	contactForce.block.torque.Y	contactForce.block.torque.Z	contactForce.ground.force.X	contactForce.ground.force.Y	contactForce.ground.force.Z	contactForce.ground.torque.X	contactForce.ground.torque.Y	contactForce.ground.torque.Z
      2.49814952	    567.49224271	    570.60423803	     -1.80270222	     48.90366663	     -0.33369327	      0.01666834	     -0.00000000	     -0.09004694	      1.80270222	    -48.90366663	      0.33369327	      0.14427581	      0.00578920	      0.06900525
      2.50184952	    571.33339944	    570.07865739	     -1.92865813	     37.85239894	     -0.35534907	      0.01775400	     -0.00000000	     -0.09635991	      1.92865813	    -37.85239894	      0.35534907	      0.11198661	      0.00619186	      0.05176006
      2.50554952	    574.69615758	    570.22210813	     -6.82642144	    128.85413489	     -0.86262238	      0.04302000	      0.00000000	     -0.34044176	      6.82642144	   -128.85413489	      0.86262238	      0.38214750	      0.02138566	      0.17032968
      2.50924952	    576.46536928	    571.27530911	     -9.77164413	    262.94012356	     -0.41120916	      0.02045237	      0.00000000	     -0.48601373	      9.77164413	   -262.94012356	      0.41120916	      0.78081039	      0.02954255	      0.33588787
      2.51294952	    576.47456346	    572.69402848	     -7.37344714	    353.17084569	      0.25159433	     -0.01249087	      0.00000000	     -0.36606858	      7.37344714	   -353.17084569	     -0.25159433	      1.04878895	      0.02158549	      0.43650762
      2.51664952	    575.29132701	    573.86644170	     -5.11887280	    341.14749025	      0.38441539	     -0.01908960	     -0.00000000	     -0.25419704	      5.11887280	   -341.14749025	     -0.38441539	      1.01230004	      0.01472952	      0.40814295
      2.52034952	    573.72692828	    574.69911203	     -3.65879113	    234.79574182	      0.26430967	     -0.01315340	     -0.00000000	     -0.18208018	      3.65879113	   -234.79574182	     -0.26430967	      0.69600931	      0.01053996	      0.27171038
      2.52404952	    572.55295983	    574.91915463	     -2.18248605	    103.00399596	      0.08143328	     -0.00406327	     -0.00000000	     -0.10889943	      2.18248605	   -103.00399596	     -0.08143328	      0.30510600	      0.00637369	      0.11510946
      2.52774952	    572.16825285	    574.49959327	     -0.99711702	     31.03816973	     -0.00480262	      0.00023998	      0.00000000	     -0.04982490	      0.99711702	    -31.03816973	      0.00480262	      0.09191757	      0.00295807	      0.03340957
      2.53144952	    572.52105021	    573.71688928	     -2.75446706	     65.50901349	     -0.08978784	      0.00448351	      0.00000000	     -0.13754295	      2.75446706	    -65.50901349	      0.08978784	      0.19405876	      0.00825240	      0.06769223
      2.53514952	    573.27066737	    573.45248059	     -6.99152541	    184.12424901	     -0.28760663	      0.01432740	     -0.00000000	     -0.34828944	      6.99152541	   -184.12424901	      0.28760663	      0.54574263	      0.02100744	      0.18221315
      2.53884952	    574.10724477	    574.50866359	     -7.05258950	    309.98302107	     -0.31631329	      0.01571764	      0.00000000	     -0.35044388	      7.05258950	   -309.98302107	      0.31631329	      0.91933985	      0.02121620	      0.29380479
      2.54254952	    574.94275051	    574.87319150	     -4.65950949	    361.51203806	     -0.21133821	      0.01049051	      0.00000000	     -0.23129099	      4.65950949	   -361.51203806	      0.21133821	      1.07281845	      0.01401944	      0.32833038
      2.54624952	    575.65603983	    575.38565431	     -3.27227399	    305.44394986	     -0.13161635	      0.00654060	      0.00000000	     -0.16261392	      3.27227399	   -305.44394986	      0.13161635	      0.90694031	      0.00983065	      0.26559166
      2.54954068	    576.22556793	    576.76861411	     -2.40519897	    193.31881710	     -0.10101974	      0.00503145	     -0.00000000	     -0.11979481	      2.40519897	   -193.31881710	      0.10101974	      0.57427886	      0.00722932	      0.16144345
